<?xml version="1.0"?>
<svg xmlns="http://www.w3.org/2000/svg"
xmlns:xlink="http://www.w3.org/1999/xlink" xmlns:cml="http://www.xml-cml.org/schema" width="322.487" height="260" x="0" y="0" font-family="sans-serif" stroke="rgb(0,0,0)" stroke-width="1"  stroke-linecap="round">
<rect x="0%" y="0%" width="100%" height="100%" stroke-width="0" fill="rgb(255,255,255)"  />
<line x1="212.4" y1="132.0" x2="214.0" y2="132.0" stroke="rgb(0,0,0)"  stroke-width="1.0"/>
<line x1="211.8" y1="125.6" x2="214.6" y2="125.6" stroke="rgb(0,0,0)"  stroke-width="1.0"/>
<line x1="211.1" y1="119.2" x2="215.3" y2="119.2" stroke="rgb(0,0,0)"  stroke-width="1.0"/>
<line x1="210.5" y1="112.8" x2="215.9" y2="112.8" stroke="rgb(0,0,0)"  stroke-width="1.0"/>
<line x1="209.8" y1="106.4" x2="216.6" y2="106.4" stroke="rgb(0,0,0)"  stroke-width="1.0"/>
<line x1="209.2" y1="100.0" x2="217.2" y2="100.0" stroke="rgb(0,0,0)"  stroke-width="1.0"/>
<line x1="167.3" y1="206.5" x2="155.2" y2="213.5" stroke="rgb(0,0,0)"  stroke-width="1.0"/>
<line x1="271.2" y1="146.5" x2="259.1" y2="153.5" stroke="rgb(0,0,0)"  stroke-width="1.0"/>
<polygon points="143.923048 100.000000 107.282032 83.464102 111.282032 76.535898 " stroke-width="1.000000" fill="rgb(0,0,0)"  stroke="rgb(0,0,0)" />
<polygon points="178.564065 160.000000 182.564065 186.800000 174.564065 186.800000 " stroke-width="1.000000" fill="rgb(0,0,0)"  stroke="rgb(0,0,0)" />
<line x1="211.7" y1="97.4" x2="235.1" y2="83.9" stroke="rgb(0,0,0)"  stroke-width="1.0"/>
<line x1="214.7" y1="102.6" x2="238.1" y2="89.1" stroke="rgb(0,0,0)"  stroke-width="1.0"/>
<line x1="143.9" y1="100.0" x2="167.3" y2="86.5" stroke="rgb(0,0,0)"  stroke-width="1.0"/>
<line x1="178.6" y1="160.0" x2="143.9" y2="140.0" stroke="rgb(0,0,0)"  stroke-width="1.0"/>
<line x1="98.0" y1="153.5" x2="85.9" y2="146.5" stroke="rgb(0,0,0)"  stroke-width="1.0"/>
<line x1="139.7" y1="143.4" x2="138.9" y2="142.0" stroke="rgb(0,0,0)"  stroke-width="1.0"/>
<line x1="136.3" y1="146.1" x2="134.8" y2="143.6" stroke="rgb(0,0,0)"  stroke-width="1.0"/>
<line x1="132.9" y1="148.8" x2="130.8" y2="145.2" stroke="rgb(0,0,0)"  stroke-width="1.0"/>
<line x1="129.5" y1="151.5" x2="126.8" y2="146.8" stroke="rgb(0,0,0)"  stroke-width="1.0"/>
<line x1="126.1" y1="154.2" x2="122.7" y2="148.3" stroke="rgb(0,0,0)"  stroke-width="1.0"/>
<line x1="122.7" y1="156.9" x2="118.7" y2="149.9" stroke="rgb(0,0,0)"  stroke-width="1.0"/>
<line x1="109.3" y1="80.0" x2="85.9" y2="93.5" stroke="rgb(0,0,0)"  stroke-width="1.0"/>
<line x1="178.6" y1="160.0" x2="213.2" y2="140.0" stroke="rgb(0,0,0)"  stroke-width="1.0"/>
<line x1="213.2" y1="140.0" x2="236.6" y2="153.5" stroke="rgb(0,0,0)"  stroke-width="1.0"/>
<line x1="178.6" y1="67.0" x2="178.6" y2="53.0" stroke="rgb(0,0,0)"  stroke-width="1.0"/>
<line x1="51.3" y1="86.5" x2="63.4" y2="93.5" stroke="rgb(0,0,0)"  stroke-width="1.0"/>
<line x1="143.9" y1="100.0" x2="143.9" y2="140.0" stroke="rgb(0,0,0)"  stroke-width="1.0"/>
<text x="103.282032" y="168.000000" fill="rgb(255,12,12)"  stroke="rgb(255,12,12)" stroke-width="1" font-size="16" >O</text>
<text x="172.564065" y="208.000000" fill="rgb(255,12,12)"  stroke="rgb(255,12,12)" stroke-width="1" font-size="16" >O</text>
<text x="172.564065" y="88.000000" fill="rgb(255,12,12)"  stroke="rgb(255,12,12)" stroke-width="1" font-size="16" >O</text>
<text x="241.846097" y="168.000000" fill="rgb(255,12,12)"  stroke="rgb(255,12,12)" stroke-width="1" font-size="16" >O</text>
<text x="68.641016" y="108.000000" fill="rgb(255,12,12)"  stroke="rgb(255,12,12)" stroke-width="1" font-size="16" >O</text>
<text x="241.846097" y="88.000000" fill="rgb(255,12,12)"  stroke="rgb(255,12,12)" stroke-width="1" font-size="16" >O</text>
<text x="68.641016" y="148.000000" fill="rgb(191,191,191)"  stroke="rgb(191,191,191)" stroke-width="1" font-size="16" >H</text>
<text x="137.923048" y="228.000000" fill="rgb(191,191,191)"  stroke="rgb(191,191,191)" stroke-width="1" font-size="16" >H</text>
<text x="172.564065" y="48.000000" fill="rgb(191,191,191)"  stroke="rgb(191,191,191)" stroke-width="1" font-size="16" >H</text>
<text x="276.487113" y="148.000000" fill="rgb(191,191,191)"  stroke="rgb(191,191,191)" stroke-width="1" font-size="16" >H</text>
<text x="34.000000" y="88.000000" fill="rgb(191,191,191)"  stroke="rgb(191,191,191)" stroke-width="1" font-size="16" >H</text>
<title>1595b267bfaee799c01817cb457f113c - Open Babel Depiction</title>
</svg>